<svg xmlns="http://www.w3.org/2000/svg" viewBox="0 0 800 480" fill="none" role="img" aria-label="??????">
  <defs>
    <linearGradient id="bg" x1="0" y1="0" x2="800" y2="480">
      <stop stop-color="#052E1A"/>
      <stop offset="0.55" stop-color="#0F172A"/>
      <stop offset="1" stop-color="#064E3B"/>
    </linearGradient>
    <pattern id="grid" width="30" height="30" patternUnits="userSpaceOnUse">
      <path d="M30 0H0V30" stroke="#94A3B8" stroke-opacity="0.07"/>
    </pattern>
  </defs>
  <rect width="800" height="480" fill="url(#bg)"/>
  <rect width="800" height="480" fill="url(#grid)" opacity="0.55"/>
  <circle cx="680" cy="92" r="100" fill="#10B981" opacity="0.18"/>
  <circle cx="120" cy="380" r="120" fill="#059669" opacity="0.14"/>
  <rect x="88" y="286" width="624" height="2" fill="#FFFFFF" fill-opacity="0.08"/>
  <rect x="128" y="220" width="36" height="66" rx="10" fill="#34D399" fill-opacity="0.85"/>
  <rect x="208" y="186" width="36" height="100" rx="10" fill="#6EE7B7" fill-opacity="0.75"/>
  <rect x="288" y="152" width="36" height="134" rx="10" fill="#10B981" fill-opacity="0.92"/>
  <rect x="368" y="198" width="36" height="88" rx="10" fill="#34D399" fill-opacity="0.68"/>
  <rect x="448" y="168" width="36" height="118" rx="10" fill="#059669" fill-opacity="0.82"/>
  <rect x="528" y="132" width="36" height="154" rx="10" fill="#6EE7B7" fill-opacity="0.88"/>
  <path d="M128 248C208 220 288 176 368 204C448 232 528 160 608 188" stroke="#A7F3D0" stroke-width="4" stroke-linecap="round"/>
  <circle cx="608" cy="188" r="8" fill="#ECFDF5"/>
  <rect x="48" y="44" width="170" height="34" rx="17" fill="#0F172A" fill-opacity="0.55" stroke="#34D399" stroke-opacity="0.25"/>
  <text x="64" y="67" fill="#E2E8F0" font-family="Segoe UI,sans-serif" font-size="15" font-weight="700" letter-spacing="0.16em">ANALYTICS</text>
  <text x="48" y="408" fill="#F8FAFC" font-family="Segoe UI,sans-serif" font-size="36" font-weight="800">??????</text>
  <text x="48" y="442" fill="#94A3B8" font-family="Segoe UI,sans-serif" font-size="18">PV / UV ? ?? ? ??</text>
</svg>
