<svg xmlns="http://www.w3.org/2000/svg" viewBox="0 0 800 480" fill="none" role="img" aria-label="???">
  <defs>
    <linearGradient id="bg" x1="0" y1="0" x2="800" y2="480">
      <stop stop-color="#0B1020"/>
      <stop offset="0.55" stop-color="#1E1B4B"/>
      <stop offset="1" stop-color="#082F49"/>
    </linearGradient>
    <pattern id="grid" width="30" height="30" patternUnits="userSpaceOnUse">
      <path d="M30 0H0V30" stroke="#94A3B8" stroke-opacity="0.07"/>
    </pattern>
  </defs>
  <rect width="800" height="480" fill="url(#bg)"/>
  <rect width="800" height="480" fill="url(#grid)" opacity="0.55"/>
  <circle cx="690" cy="90" r="100" fill="#22D3EE" opacity="0.18"/>
  <ellipse cx="530" cy="238" rx="190" ry="76" stroke="#67E8F9" stroke-opacity="0.24" stroke-width="2"/>
  <ellipse cx="530" cy="238" rx="128" ry="52" stroke="#A78BFA" stroke-opacity="0.18" stroke-width="2"/>
  <path d="M478 188L582 188L622 238L582 288H478L438 238L478 188Z" stroke="#E0F2FE" stroke-opacity="0.78" stroke-width="3"/>
  <path d="M478 188L530 238L478 288" stroke="#67E8F9" stroke-opacity="0.55" stroke-width="2"/>
  <path d="M582 188L530 238L582 288" stroke="#C4B5FD" stroke-opacity="0.55" stroke-width="2"/>
  <circle cx="170" cy="120" r="3" fill="#67E8F9"/>
  <circle cx="220" cy="160" r="2" fill="#FFFFFF" fill-opacity="0.45"/>
  <circle cx="280" cy="108" r="2" fill="#A78BFA"/>
  <rect x="48" y="44" width="170" height="34" rx="17" fill="#0F172A" fill-opacity="0.55" stroke="#22D3EE" stroke-opacity="0.25"/>
  <text x="64" y="67" fill="#E2E8F0" font-family="Segoe UI,sans-serif" font-size="15" font-weight="700" letter-spacing="0.16em">THREE.JS LAB</text>
  <text x="48" y="408" fill="#F8FAFC" font-family="Segoe UI,sans-serif" font-size="42" font-weight="800">???</text>
  <text x="48" y="442" fill="#94A3B8" font-family="Segoe UI,sans-serif" font-size="18">WebGL ? ?? ? ????</text>
</svg>
