<svg xmlns="http://www.w3.org/2000/svg" viewBox="0 0 800 480" fill="none" role="img" aria-label="开发者工具箱">
  <defs>
    <linearGradient id="bg" x1="0" y1="0" x2="800" y2="480">
      <stop stop-color="#172554"/>
      <stop offset="0.55" stop-color="#1E293B"/>
      <stop offset="1" stop-color="#78350F"/>
    </linearGradient>
    <pattern id="grid" width="30" height="30" patternUnits="userSpaceOnUse">
      <path d="M30 0H0V30" stroke="#94A3B8" stroke-opacity="0.07"/>
    </pattern>
  </defs>
  <rect width="800" height="480" fill="url(#bg)"/>
  <rect width="800" height="480" fill="url(#grid)" opacity="0.55"/>
  <circle cx="660" cy="110" r="100" fill="#F59E0B" opacity="0.16"/>
  <circle cx="120" cy="360" r="120" fill="#3B82F6" opacity="0.14"/>
  <rect x="420" y="118" width="280" height="220" rx="28" fill="#0F172A" fill-opacity="0.58" stroke="#FCD34D" stroke-opacity="0.22"/>
  <path d="M470 168H650" stroke="#FFFFFF" stroke-opacity="0.18" stroke-width="8" stroke-linecap="round"/>
  <path d="M470 208H610" stroke="#FFFFFF" stroke-opacity="0.12" stroke-width="8" stroke-linecap="round"/>
  <path d="M470 248H630" stroke="#FFFFFF" stroke-opacity="0.1" stroke-width="8" stroke-linecap="round"/>
  <rect x="500" y="286" width="72" height="28" rx="14" fill="#F59E0B" fill-opacity="0.85"/>
  <rect x="88" y="148" width="220" height="160" rx="24" fill="#111827" fill-opacity="0.72" stroke="#93C5FD" stroke-opacity="0.18"/>
  <path d="M128 188L188 248L248 178" stroke="#34D399" stroke-width="8" stroke-linecap="round" stroke-linejoin="round"/>
  <rect x="48" y="44" width="160" height="34" rx="17" fill="#0F172A" fill-opacity="0.55" stroke="#FBBF24" stroke-opacity="0.25"/>
  <text x="64" y="67" fill="#E2E8F0" font-family="Segoe UI,sans-serif" font-size="15" font-weight="700" letter-spacing="0.16em">DEV TOOLS</text>
  <text x="48" y="408" fill="#F8FAFC" font-family="Segoe UI,sans-serif" font-size="36" font-weight="800">开发者工具箱</text>
  <text x="48" y="442" fill="#94A3B8" font-family="Segoe UI,sans-serif" font-size="18">JSON · 正则 · Markdown</text>
</svg>
